<?xml version="1.0" encoding="utf-8"?>
<!-- Generator: Adobe Illustrator 27.2.0, SVG Export Plug-In . SVG Version: 6.00 Build 0)  -->
<svg version="1.1" xmlns="http://www.w3.org/2000/svg" xmlns:xlink="http://www.w3.org/1999/xlink" x="0px" y="0px"
	 viewBox="0 0 612 612" enable-background="new 0 0 612 612" xml:space="preserve">
<g id="Layer_2">
	<path d="M537.12,238.2c-12.89,0-231.12,0-231.12,0s-218.23,0-231.12,0c-12.89,0-12.89,18.05-12.89,18.05v48.71v50.8
		c0,0,0,18.05,12.89,18.05c12.89,0,231.12,0,231.12,0s218.23,0,231.12,0c12.89,0,12.89-18.05,12.89-18.05v-50.8v-48.71
		C550.02,256.25,550.02,238.2,537.12,238.2z"/>
	<g>
		<path fill="#FFFFFF" d="M88.41,447.8l-0.22-0.08c-0.16-0.06-16.76-6.59-16.76-20.4V184.69c0-13.82,16.6-20.34,16.76-20.41
			l0.21-0.08L306,39.86L523.59,164.2l0.22,0.08c0.16,0.06,16.76,6.59,16.76,20.4v242.63c0,13.82-16.6,20.34-16.77,20.41l-0.21,0.08
			L306,572.14L88.41,447.8z"/>
		<path d="M306,43.32l215.9,123.37l0.41,0.23l0.44,0.17c0.15,0.06,14.82,5.95,14.82,17.6V306v121.31c0,11.71-14.7,17.55-14.82,17.6
			l-0.44,0.17l-0.41,0.23L306,568.68L90.1,445.31l-0.41-0.23l-0.42-0.16c-0.15-0.06-14.84-5.9-14.84-17.61V306V184.69
			c0-11.71,14.7-17.55,14.82-17.6l0.44-0.17l0.41-0.23L306,43.32 M306,36.41L87.13,161.48c0,0-18.7,7.09-18.7,23.21
			c0,16.12,0,121.31,0,121.31s0,105.2,0,121.31s18.7,23.21,18.7,23.21L306,575.59l218.87-125.07c0,0,18.7-7.09,18.7-23.21
			s0-121.31,0-121.31s0-105.2,0-121.31c0-16.12-18.7-23.21-18.7-23.21L306,36.41L306,36.41z"/>
	</g>
	<g>
		<polygon fill="#FFFFFF" points="423.34,303 423.34,220.71 525.43,303 		"/>
		<path d="M426.34,226.99L516.92,300h-90.58V226.99 M420.34,214.44V306h113.58L420.34,214.44L420.34,214.44z"/>
	</g>
	<polygon points="533.93,306 420.34,397.56 420.34,306 	"/>
	<g>
		<polygon fill="#FFFFFF" points="86.57,309 188.66,309 188.66,391.29 		"/>
		<path d="M185.66,312v73.01L95.08,312H185.66 M191.66,306H78.07l113.58,91.56V306L191.66,306z"/>
	</g>
	<polygon points="78.07,306 191.66,214.44 191.66,306 	"/>
	<path fill="#FFFFFF" stroke="#000000" stroke-width="6" stroke-miterlimit="10" d="M453.31,253.02
		c-10.87-28.4-12.25-33.52-52.22-59.31S306,136.98,306,136.98s-55.12,30.95-95.09,56.73s-41.35,30.91-52.22,59.31
		C147.82,281.42,138.7,306,138.7,306s9.12,24.58,19.99,52.98c10.87,28.4,12.25,33.52,52.22,59.31
		c39.97,25.79,95.09,56.73,95.09,56.73s55.12-30.95,95.09-56.73c39.97-25.79,41.35-30.91,52.22-59.31
		C464.18,330.58,473.3,306,473.3,306S464.18,281.42,453.31,253.02z"/>
</g>
<g id="Layer_3">
	<path stroke="#000000" stroke-width="6" stroke-miterlimit="10" d="M306,166.82c0,0-12.64,120.95-12.64,139.18
		S306,445.18,306,445.18S318.64,324.23,318.64,306S306,166.82,306,166.82z"/>
</g>
</svg>
